<svg width="80" height="86" viewBox="0 0 80 86" fill="none" xmlns="http://www.w3.org/2000/svg">
<ellipse cx="39.8022" cy="43" rx="39.2869" ry="43" fill="url(#paint0_linear)"/>
<g clip-path="url(#clip0)">
<path d="M54.6178 30.3569L53.8741 30.3569V51.1838C53.8741 52.0041 53.204 52.6683 52.3829 52.6683C43.477 52.6675 39.9526 55.2988 39.9191 55.3248L38.9924 56.0373L38.0807 55.3248C38.0472 55.2988 34.5227 52.6675 25.6168 52.6683C24.7957 52.6683 24.1257 52.0041 24.1257 51.1838V30.3569H23.382C22.5602 30.3569 21.8945 31.0226 21.8945 31.8444V57.1305C21.8945 57.9523 22.5602 58.6179 23.382 58.6179H54.6178C55.4396 58.6179 56.1052 57.9523 56.1052 57.1305V31.8444C56.1052 31.0226 55.4396 30.3569 54.6178 30.3569Z" fill="url(#paint1_linear)"/>
<path d="M38.2561 29.8854C36.8089 29.077 33.1386 27.4996 26.3716 27.388C25.9574 27.3813 25.613 27.7212 25.613 28.1355V50.4468C25.613 50.8536 25.9455 51.1801 26.3523 51.1868C33.1305 51.2954 36.8066 52.875 38.2561 53.6842V29.8854Z" fill="url(#paint2_linear)"/>
<path d="M51.6281 27.388C44.8611 27.4996 41.1909 29.077 39.7437 29.8854V53.6842C41.1931 52.875 44.8693 51.2954 51.6475 51.1868C52.0543 51.1801 52.3867 50.8536 52.3867 50.4468V28.1355C52.3867 27.7212 52.0424 27.3813 51.6281 27.388Z" fill="url(#paint3_linear)"/>
</g>
<defs>
<linearGradient id="paint0_linear" x1="-70.9014" y1="104.546" x2="131.44" y2="48.4465" gradientUnits="userSpaceOnUse">
<stop offset="0.259668" stop-color="#25CED1"/>
<stop offset="0.624065" stop-color="#34E6E9"/>
<stop offset="1" stop-color="#6AFCFF"/>
</linearGradient>
<linearGradient id="paint1_linear" x1="38.9999" y1="30.3569" x2="38.9999" y2="58.6179" gradientUnits="userSpaceOnUse">
<stop stop-color="white"/>
<stop offset="1" stop-color="white"/>
</linearGradient>
<linearGradient id="paint2_linear" x1="31.9346" y1="27.3879" x2="31.9346" y2="53.6842" gradientUnits="userSpaceOnUse">
<stop stop-color="white"/>
<stop offset="1" stop-color="white"/>
</linearGradient>
<linearGradient id="paint3_linear" x1="46.0652" y1="27.3879" x2="46.0652" y2="53.6842" gradientUnits="userSpaceOnUse">
<stop stop-color="white"/>
<stop offset="1" stop-color="white"/>
</linearGradient>
<clipPath id="clip0">
<rect width="32.6155" height="35.6981" fill="white" transform="translate(23.4944 25.1509)"/>
</clipPath>
</defs>
</svg>
