<svg width="135" height="114" viewBox="0 0 135 114" fill="none" xmlns="http://www.w3.org/2000/svg">
<ellipse cx="67" cy="56.5107" rx="47.4508" ry="45.2911" transform="rotate(-15.8189 67 56.5107)" fill="url(#paint0_linear)" fill-opacity="0.15"/>
<path d="M48.343 64.12C47.9563 64.12 47.643 64 47.403 63.76C47.1763 63.52 47.063 63.2067 47.063 62.82V51.12C47.063 50.7333 47.1696 50.4333 47.383 50.22C47.6096 50.0067 47.9163 49.9 48.303 49.9H55.323C56.1363 49.9 56.543 50.2467 56.543 50.94C56.543 51.62 56.1363 51.96 55.323 51.96H49.603V55.8H54.923C55.7363 55.8 56.143 56.1467 56.143 56.84C56.143 57.52 55.7363 57.86 54.923 57.86H49.603V62.82C49.603 63.2067 49.4896 63.52 49.263 63.76C49.0363 64 48.7296 64.12 48.343 64.12ZM59.8111 64.12C59.4511 64.12 59.1511 64.02 58.9111 63.82C58.6844 63.6067 58.5711 63.3067 58.5711 62.92V55.2C58.5711 54.8133 58.6844 54.52 58.9111 54.32C59.1511 54.12 59.4511 54.02 59.8111 54.02C60.1711 54.02 60.4711 54.12 60.7111 54.32C60.9511 54.52 61.0711 54.8133 61.0711 55.2V62.92C61.0711 63.3067 60.9511 63.6067 60.7111 63.82C60.4711 64.02 60.1711 64.12 59.8111 64.12ZM59.8111 52.24C59.3578 52.24 58.9978 52.12 58.7311 51.88C58.4644 51.6267 58.3311 51.3 58.3311 50.9C58.3311 50.5 58.4644 50.18 58.7311 49.94C58.9978 49.7 59.3578 49.58 59.8111 49.58C60.2511 49.58 60.6044 49.7 60.8711 49.94C61.1511 50.18 61.2911 50.5 61.2911 50.9C61.2911 51.3 61.1578 51.6267 60.8911 51.88C60.6244 52.12 60.2644 52.24 59.8111 52.24ZM67.5892 64.16C66.1359 64.16 64.9626 63.8733 64.0692 63.3C63.6426 63.0467 63.4292 62.6867 63.4292 62.22C63.4292 61.9533 63.5026 61.74 63.6492 61.58C63.7959 61.4067 63.9759 61.32 64.1892 61.32C64.4159 61.32 64.7292 61.4267 65.1292 61.64C65.5559 61.84 65.9426 61.9933 66.2892 62.1C66.6492 62.2067 67.1026 62.26 67.6492 62.26C68.2092 62.26 68.6426 62.1667 68.9492 61.98C69.2692 61.7933 69.4292 61.5333 69.4292 61.2C69.4292 60.9733 69.3626 60.7933 69.2292 60.66C69.1092 60.5267 68.8826 60.4067 68.5492 60.3C68.2292 60.18 67.7359 60.0467 67.0692 59.9C65.8826 59.66 65.0292 59.32 64.5092 58.88C64.0026 58.44 63.7492 57.8333 63.7492 57.06C63.7492 56.4733 63.9226 55.9467 64.2692 55.48C64.6159 55 65.0892 54.6333 65.6892 54.38C66.3026 54.1133 66.9959 53.98 67.7692 53.98C68.3292 53.98 68.8692 54.0533 69.3892 54.2C69.9092 54.3333 70.3759 54.5333 70.7892 54.8C71.2159 55.0667 71.4292 55.42 71.4292 55.86C71.4292 56.1267 71.3559 56.3533 71.2092 56.54C71.0626 56.7133 70.8826 56.8 70.6692 56.8C70.5226 56.8 70.3759 56.7733 70.2292 56.72C70.0959 56.6533 69.9226 56.56 69.7092 56.44C69.3226 56.24 68.9892 56.0933 68.7092 56C68.4292 55.8933 68.0826 55.84 67.6692 55.84C67.1759 55.84 66.7826 55.94 66.4892 56.14C66.2092 56.34 66.0692 56.6133 66.0692 56.96C66.0692 57.2933 66.2159 57.5467 66.5092 57.72C66.8026 57.8933 67.3692 58.0667 68.2092 58.24C69.1026 58.4267 69.8026 58.64 70.3092 58.88C70.8159 59.12 71.1759 59.42 71.3892 59.78C71.6159 60.14 71.7292 60.6 71.7292 61.16C71.7292 62.0667 71.3492 62.7933 70.5892 63.34C69.8426 63.8867 68.8426 64.16 67.5892 64.16ZM75.3962 64.12C75.0362 64.12 74.7362 64.02 74.4962 63.82C74.2696 63.6067 74.1562 63.3067 74.1562 62.92V55.2C74.1562 54.8133 74.2696 54.52 74.4962 54.32C74.7362 54.12 75.0362 54.02 75.3962 54.02C75.7562 54.02 76.0562 54.12 76.2962 54.32C76.5362 54.52 76.6562 54.8133 76.6562 55.2V62.92C76.6562 63.3067 76.5362 63.6067 76.2962 63.82C76.0562 64.02 75.7562 64.12 75.3962 64.12ZM75.3962 52.24C74.9429 52.24 74.5829 52.12 74.3162 51.88C74.0496 51.6267 73.9162 51.3 73.9162 50.9C73.9162 50.5 74.0496 50.18 74.3162 49.94C74.5829 49.7 74.9429 49.58 75.3962 49.58C75.8362 49.58 76.1896 49.7 76.4562 49.94C76.7362 50.18 76.8762 50.5 76.8762 50.9C76.8762 51.3 76.7429 51.6267 76.4762 51.88C76.2096 52.12 75.8496 52.24 75.3962 52.24ZM88.3344 62.06C88.601 62.3133 88.7344 62.6 88.7344 62.92C88.7344 63.2267 88.621 63.5 88.3944 63.74C88.181 63.98 87.9277 64.1 87.6344 64.1C87.341 64.1 87.0677 63.98 86.8144 63.74L82.1344 59.5V62.92C82.1344 63.3067 82.0144 63.6 81.7744 63.8C81.5344 64 81.2344 64.1 80.8744 64.1C80.5144 64.1 80.2144 64 79.9744 63.8C79.7477 63.6 79.6344 63.3067 79.6344 62.92V50.98C79.6344 50.5933 79.7477 50.3 79.9744 50.1C80.2144 49.9 80.5144 49.8 80.8744 49.8C81.2344 49.8 81.5344 49.9 81.7744 50.1C82.0144 50.3 82.1344 50.5933 82.1344 50.98V58.5L86.4144 54.4C86.6544 54.16 86.9277 54.04 87.2344 54.04C87.541 54.04 87.8077 54.1533 88.0344 54.38C88.261 54.6067 88.3744 54.8733 88.3744 55.18C88.3744 55.4867 88.2477 55.7667 87.9944 56.02L84.8544 58.94L88.3344 62.06Z" fill="#384F7D"/>
<defs>
<linearGradient id="paint0_linear" x1="149.697" y1="-17.1547" x2="-6.41137" y2="126.239" gradientUnits="userSpaceOnUse">
<stop stop-color="#2DEEF9"/>
<stop offset="1" stop-color="#E084F1"/>
</linearGradient>
</defs>
</svg>
