<svg width="38" height="35" viewBox="0 0 38 35" fill="none" xmlns="http://www.w3.org/2000/svg">
<ellipse cx="18.9371" cy="17.6277" rx="18.4252" ry="17.1008" fill="#0066B8"/>
<path d="M19.3506 11.7832L11.305 17.9392C11.305 17.9479 11.3027 17.9606 11.298 17.9781C11.2933 17.9953 11.2909 18.0079 11.2909 18.0168V24.2504C11.2909 24.4755 11.3796 24.6705 11.5568 24.8348C11.734 24.9991 11.9439 25.0818 12.1864 25.0818H17.5594V20.0948H21.1418V25.082H26.5147C26.7572 25.082 26.9674 24.9995 27.1444 24.8348C27.3216 24.6707 27.4106 24.4755 27.4106 24.2504V18.0168C27.4106 17.9822 27.4055 17.9561 27.3965 17.9392L19.3506 11.7832Z" fill="white"/>
<path d="M30.4744 16.5363L27.4102 14.1727V8.87408C27.4102 8.75295 27.3682 8.65333 27.284 8.57536C27.2005 8.49749 27.0932 8.45855 26.9624 8.45855H24.2759C24.1452 8.45855 24.0379 8.49749 23.9539 8.57536C23.87 8.65333 23.8281 8.75299 23.8281 8.87408V11.4065L20.414 8.75708C20.1158 8.53197 19.7613 8.41943 19.3508 8.41943C18.9403 8.41943 18.5858 8.53197 18.2874 8.75708L8.22641 16.5363C8.13314 16.6055 8.08203 16.6986 8.07252 16.8155C8.06306 16.9323 8.09565 17.0343 8.17039 17.1208L9.03791 18.0819C9.11265 18.1597 9.21047 18.2074 9.33177 18.2248C9.44376 18.2335 9.55575 18.2031 9.66774 18.1339L19.3505 10.6403L29.0333 18.1339C29.1081 18.1943 29.2059 18.2244 29.3272 18.2244H29.3692C29.4903 18.2073 29.588 18.1594 29.6631 18.0817L30.5307 17.1208C30.6053 17.0341 30.638 16.9322 30.6283 16.8153C30.6187 16.6987 30.5674 16.6056 30.4744 16.5363Z" fill="white"/>
</svg>