<svg width="135" height="114" viewBox="0 0 135 114" fill="none" xmlns="http://www.w3.org/2000/svg">
<ellipse cx="67" cy="56.5107" rx="47.4508" ry="45.2911" transform="rotate(-15.8189 67 56.5107)" fill="url(#paint0_linear)" fill-opacity="0.15"/>
<path d="M41.7975 62.06C42.0642 62.3133 42.1975 62.6 42.1975 62.92C42.1975 63.2267 42.0775 63.5 41.8375 63.74C41.6108 63.9667 41.3375 64.08 41.0175 64.08C40.6842 64.08 40.3775 63.94 40.0975 63.66L33.4375 57.42V62.82C33.4375 63.2067 33.3175 63.52 33.0775 63.76C32.8508 64 32.5375 64.12 32.1375 64.12C31.7508 64.12 31.4375 64 31.1975 63.76C30.9708 63.52 30.8575 63.2067 30.8575 62.82V51.08C30.8575 50.6933 30.9708 50.3867 31.1975 50.16C31.4375 49.92 31.7508 49.8 32.1375 49.8C32.5375 49.8 32.8508 49.92 33.0775 50.16C33.3175 50.3867 33.4375 50.6933 33.4375 51.08V56.22L39.8775 50.18C40.1175 49.94 40.3908 49.82 40.6975 49.82C41.0042 49.82 41.2708 49.94 41.4975 50.18C41.7375 50.4067 41.8575 50.6733 41.8575 50.98C41.8575 51.2867 41.7242 51.5667 41.4575 51.82L36.0775 56.74L41.7975 62.06ZM48.603 64.16C47.603 64.16 46.723 63.9533 45.963 63.54C45.2163 63.1267 44.6363 62.5333 44.223 61.76C43.8096 60.9867 43.603 60.0867 43.603 59.06C43.603 58.0333 43.8096 57.14 44.223 56.38C44.6363 55.6067 45.2163 55.0133 45.963 54.6C46.723 54.1867 47.603 53.98 48.603 53.98C49.603 53.98 50.4763 54.1867 51.223 54.6C51.983 55.0133 52.563 55.6067 52.963 56.38C53.3763 57.14 53.583 58.0333 53.583 59.06C53.583 60.0867 53.3763 60.9867 52.963 61.76C52.563 62.5333 51.983 63.1267 51.223 63.54C50.4763 63.9533 49.603 64.16 48.603 64.16ZM48.583 62.22C49.3963 62.22 50.0163 61.9533 50.443 61.42C50.8696 60.8867 51.083 60.1 51.083 59.06C51.083 58.0333 50.8696 57.2533 50.443 56.72C50.0163 56.1733 49.403 55.9 48.603 55.9C47.803 55.9 47.183 56.1733 46.743 56.72C46.3163 57.2533 46.103 58.0333 46.103 59.06C46.103 60.1 46.3163 60.8867 46.743 61.42C47.1696 61.9533 47.783 62.22 48.583 62.22ZM64.3269 54.02C64.7002 54.02 65.0002 54.1267 65.2269 54.34C65.4535 54.5533 65.5669 54.84 65.5669 55.2V63.1C65.5669 64.6333 65.1402 65.7933 64.2869 66.58C63.4335 67.3667 62.1735 67.76 60.5069 67.76C59.0535 67.76 57.8402 67.4867 56.8669 66.94C56.3735 66.6467 56.1269 66.2933 56.1269 65.88C56.1269 65.5867 56.1935 65.3533 56.3269 65.18C56.4735 65.0067 56.6602 64.92 56.8869 64.92C57.0069 64.92 57.1535 64.9467 57.3269 65C57.5002 65.0667 57.6802 65.14 57.8669 65.22C58.3469 65.42 58.7735 65.5733 59.1469 65.68C59.5335 65.7867 59.9735 65.84 60.4669 65.84C62.2135 65.84 63.0869 64.9867 63.0869 63.28V62C62.7935 62.5467 62.3669 62.9733 61.8069 63.28C61.2469 63.5733 60.6069 63.72 59.8869 63.72C59.0335 63.72 58.2735 63.52 57.6069 63.12C56.9535 62.7067 56.4402 62.1333 56.0669 61.4C55.6935 60.6667 55.5069 59.82 55.5069 58.86C55.5069 57.9 55.6869 57.0533 56.0469 56.32C56.4202 55.5733 56.9402 55 57.6069 54.6C58.2735 54.1867 59.0335 53.98 59.8869 53.98C60.6069 53.98 61.2469 54.1333 61.8069 54.44C62.3669 54.7333 62.7935 55.1533 63.0869 55.7V55.18C63.0869 54.8333 63.2002 54.5533 63.4269 54.34C63.6535 54.1267 63.9535 54.02 64.3269 54.02ZM60.5469 61.78C61.3469 61.78 61.9669 61.52 62.4069 61C62.8602 60.48 63.0869 59.7667 63.0869 58.86C63.0869 57.94 62.8602 57.22 62.4069 56.7C61.9669 56.18 61.3469 55.92 60.5469 55.92C59.7602 55.92 59.1402 56.18 58.6869 56.7C58.2335 57.22 58.0069 57.94 58.0069 58.86C58.0069 59.7667 58.2335 60.48 58.6869 61C59.1402 61.52 59.7602 61.78 60.5469 61.78ZM74.2363 53.98C75.4096 53.98 76.2829 54.3133 76.8563 54.98C77.4296 55.6467 77.7163 56.6533 77.7163 58V62.92C77.7163 63.2933 77.6029 63.5867 77.3763 63.8C77.1629 64.0133 76.8629 64.12 76.4763 64.12C76.0896 64.12 75.7829 64.0133 75.5563 63.8C75.3296 63.5867 75.2163 63.2933 75.2163 62.92V58.14C75.2163 57.38 75.0696 56.8267 74.7763 56.48C74.4963 56.1333 74.0496 55.96 73.4363 55.96C72.7163 55.96 72.1363 56.1867 71.6963 56.64C71.2696 57.0933 71.0563 57.7 71.0563 58.46V62.92C71.0563 63.2933 70.9429 63.5867 70.7163 63.8C70.4896 64.0133 70.1829 64.12 69.7963 64.12C69.4096 64.12 69.1029 64.0133 68.8763 63.8C68.6629 63.5867 68.5563 63.2933 68.5563 62.92V55.18C68.5563 54.8333 68.6696 54.5533 68.8963 54.34C69.1229 54.1267 69.4296 54.02 69.8163 54.02C70.1629 54.02 70.4429 54.1267 70.6563 54.34C70.8829 54.54 70.9963 54.8067 70.9963 55.14V55.68C71.3296 55.1333 71.7763 54.7133 72.3363 54.42C72.8963 54.1267 73.5296 53.98 74.2363 53.98ZM81.8955 64.12C81.5355 64.12 81.2355 64.02 80.9955 63.82C80.7688 63.6067 80.6555 63.3067 80.6555 62.92V55.2C80.6555 54.8133 80.7688 54.52 80.9955 54.32C81.2355 54.12 81.5355 54.02 81.8955 54.02C82.2555 54.02 82.5555 54.12 82.7955 54.32C83.0355 54.52 83.1555 54.8133 83.1555 55.2V62.92C83.1555 63.3067 83.0355 63.6067 82.7955 63.82C82.5555 64.02 82.2555 64.12 81.8955 64.12ZM81.8955 52.24C81.4421 52.24 81.0821 52.12 80.8155 51.88C80.5488 51.6267 80.4155 51.3 80.4155 50.9C80.4155 50.5 80.5488 50.18 80.8155 49.94C81.0821 49.7 81.4421 49.58 81.8955 49.58C82.3355 49.58 82.6888 49.7 82.9555 49.94C83.2355 50.18 83.3755 50.5 83.3755 50.9C83.3755 51.3 83.2421 51.6267 82.9755 51.88C82.7088 52.12 82.3488 52.24 81.8955 52.24ZM91.2136 62.26C91.8803 62.3 92.2136 62.6 92.2136 63.16C92.2136 63.48 92.0803 63.7267 91.8136 63.9C91.5603 64.06 91.1936 64.1267 90.7136 64.1L90.1736 64.06C87.9336 63.9 86.8136 62.7 86.8136 60.46V56.1H85.8136C85.4536 56.1 85.1736 56.02 84.9736 55.86C84.7869 55.7 84.6936 55.4667 84.6936 55.16C84.6936 54.8533 84.7869 54.62 84.9736 54.46C85.1736 54.3 85.4536 54.22 85.8136 54.22H86.8136V52.38C86.8136 52.02 86.9269 51.7333 87.1536 51.52C87.3803 51.3067 87.6869 51.2 88.0736 51.2C88.4469 51.2 88.7469 51.3067 88.9736 51.52C89.2003 51.7333 89.3136 52.02 89.3136 52.38V54.22H91.0136C91.3736 54.22 91.6469 54.3 91.8336 54.46C92.0336 54.62 92.1336 54.8533 92.1336 55.16C92.1336 55.4667 92.0336 55.7 91.8336 55.86C91.6469 56.02 91.3736 56.1 91.0136 56.1H89.3136V60.64C89.3136 61.6267 89.7669 62.1533 90.6736 62.22L91.2136 62.26ZM95.1564 64.12C94.7964 64.12 94.4964 64.02 94.2564 63.82C94.0297 63.6067 93.9164 63.3067 93.9164 62.92V55.2C93.9164 54.8133 94.0297 54.52 94.2564 54.32C94.4964 54.12 94.7964 54.02 95.1564 54.02C95.5164 54.02 95.8164 54.12 96.0564 54.32C96.2964 54.52 96.4164 54.8133 96.4164 55.2V62.92C96.4164 63.3067 96.2964 63.6067 96.0564 63.82C95.8164 64.02 95.5164 64.12 95.1564 64.12ZM95.1564 52.24C94.7031 52.24 94.3431 52.12 94.0764 51.88C93.8097 51.6267 93.6764 51.3 93.6764 50.9C93.6764 50.5 93.8097 50.18 94.0764 49.94C94.3431 49.7 94.7031 49.58 95.1564 49.58C95.5964 49.58 95.9497 49.7 96.2164 49.94C96.4964 50.18 96.6364 50.5 96.6364 50.9C96.6364 51.3 96.5031 51.6267 96.2364 51.88C95.9697 52.12 95.6097 52.24 95.1564 52.24ZM104.335 51.76C103.721 51.8 103.275 51.9867 102.995 52.32C102.715 52.6533 102.575 53.1333 102.575 53.76V54.22H104.275C105.021 54.22 105.395 54.5333 105.395 55.16C105.395 55.7867 105.021 56.1 104.275 56.1H102.575V62.92C102.575 63.3067 102.455 63.6 102.215 63.8C101.988 64 101.695 64.1 101.335 64.1C100.975 64.1 100.675 64 100.435 63.8C100.195 63.6 100.075 63.3067 100.075 62.92V56.1H99.0745C98.3279 56.1 97.9545 55.7867 97.9545 55.16C97.9545 54.5333 98.3279 54.22 99.0745 54.22H100.075V54.08C100.075 52.8267 100.401 51.8467 101.055 51.14C101.721 50.42 102.655 50.0133 103.855 49.92L104.375 49.88C104.908 49.84 105.281 49.9 105.495 50.06C105.721 50.2067 105.835 50.44 105.835 50.76C105.835 51.3333 105.508 51.6533 104.855 51.72L104.335 51.76Z" fill="#384F7D"/>
<defs>
<linearGradient id="paint0_linear" x1="149.697" y1="-17.1547" x2="-6.41137" y2="126.239" gradientUnits="userSpaceOnUse">
<stop stop-color="#F92D45"/>
<stop offset="1" stop-color="#E084F1"/>
</linearGradient>
</defs>
</svg>
