<svg width="20" height="32" viewBox="0 0 20 32" fill="none" xmlns="http://www.w3.org/2000/svg">
<circle cx="9.3055" cy="16.1045" r="8.30544" stroke="white" stroke-opacity="0.45" stroke-width="2"/>
<path d="M12.8872 16.9329L8.63717 21.1829C8.49133 21.3287 8.31425 21.4016 8.10592 21.4016C7.89758 21.4016 7.7205 21.3287 7.57467 21.1829L6.88717 20.4641C6.74133 20.3183 6.66842 20.1412 6.66842 19.9329C6.66842 19.7245 6.74133 19.5474 6.88717 19.4016L9.88717 16.4016L6.88717 13.4016C6.74133 13.2558 6.66842 13.0787 6.66842 12.8704C6.66842 12.662 6.74133 12.4849 6.88717 12.3391L7.57467 11.6204C7.7205 11.4745 7.89758 11.4016 8.10592 11.4016C8.31425 11.4016 8.49133 11.4745 8.63717 11.6204L12.8872 15.8704C13.033 16.0162 13.1059 16.1933 13.1059 16.4016C13.1059 16.6099 13.033 16.787 12.8872 16.9329Z" fill="white"/>
</svg>
