<svg width="38" height="35" viewBox="0 0 38 35" fill="none" xmlns="http://www.w3.org/2000/svg">
<ellipse cx="19.4096" cy="17.6277" rx="18.4252" ry="17.1008" fill="#0066B8"/>
<path d="M27.9902 22.995C25.1547 21.3378 25.3075 15.9519 25.3099 15.8712C25.3099 13.3569 23.5454 11.2266 21.1277 10.5282V10.0462C21.1276 9.14937 20.3568 8.41943 19.4095 8.41943C18.4622 8.41943 17.6913 9.14937 17.6913 10.0463V10.5283C15.2735 11.2271 13.5091 13.3617 13.5096 15.8985C13.5644 17.4045 13.1894 21.6153 10.8287 22.995C10.5118 23.1803 10.3631 23.5425 10.4648 23.8822C10.5666 24.2216 10.8938 24.4559 11.2666 24.4559H16.2572C16.587 25.8167 17.8737 26.8357 19.4095 26.8357C20.9453 26.8357 22.232 25.8167 22.5618 24.4559H27.5523C27.9252 24.4559 28.2524 24.2216 28.3542 23.8822C28.4559 23.5425 28.3072 23.1803 27.9902 22.995ZM18.6619 22.8773H13.3148C15.3057 20.2169 15.1836 16.0613 15.1762 15.8713C15.1762 13.6615 17.0753 11.8635 19.41 11.8635C21.7439 11.8635 23.6428 13.6615 23.6433 15.844C23.6355 16.0568 23.5134 20.2163 25.5042 22.8773H18.6619Z" fill="white"/>
</svg>
