<?xml version="1.0"?>
<svg xmlns="http://www.w3.org/2000/svg" id="Capa_1" enable-background="new 0 0 512 512" height="512px" viewBox="0 0 512 512" width="512px"><g><path d="m497 482.001h-18.628l-42.705-199.139c-1.483-6.915-7.595-11.854-14.667-11.854h-30v-104.996c0-8.284-6.716-14.999-15-14.999h-105v-36.506l67.718-40.629c9.642-5.785 9.713-19.769.125-25.648l-75-45.998c-9.99-6.125-22.843 1.084-22.843 12.785v135.995h-105c-8.284 0-15 6.716-15 14.999v104.996h-30c-7.073 0-13.185 4.941-14.667 11.857l-42.673 199.137h-18.66c-8.284 0-15 6.716-15 14.999s6.716 15 15 15h482c8.284 0 15-6.716 15-14.999s-6.716-15-15-15zm-226-440.188 31.08 19.062-31.08 18.647zm-120 139.198h30v29.999c0 8.284 6.716 14.999 15 14.999s15-6.716 15-14.999v-29.999h30v29.999c0 8.284 6.716 14.999 15 14.999s15-6.716 15-14.999v-29.999h30v29.999c0 8.284 6.716 14.999 15 14.999s15-6.716 15-14.999v-29.999h30v89.997h-15c-8.284 0-15 6.716-15 14.999v29.999h-30v-29.999c0-8.284-6.716-14.999-15-14.999h-60c-8.284 0-15 6.716-15 14.999v29.999h-30v-29.999c0-8.284-6.716-14.999-15-14.999h-15zm-47.874 119.996h47.874v29.999c0 8.284 6.716 14.999 15 14.999h60c8.284 0 15-6.716 15-14.999v-29.999h30v29.999c0 8.284 6.716 14.999 15 14.999h60c8.284 0 15-6.716 15-14.999v-29.999h47.876l38.813 180.994h-146.74c.022-.332.051-.662.051-1v-59.998c0-24.813-20.187-44.998-45-44.998s-45 20.186-45 44.998v59.998c0 .338.029.668.051 1h-146.711zm167.925 180.994h-30.101c.022-.332.051-.662.051-1v-59.998c0-8.271 6.729-14.999 15-14.999s15 6.728 15 14.999v59.998c-.001.338.028.668.05 1z" data-original="#000000" class="active-path" data-old_color="#000000" fill="#39C4A5"/></g> </svg>
