<svg width="135" height="114" viewBox="0 0 135 114" fill="none" xmlns="http://www.w3.org/2000/svg">
<ellipse cx="66" cy="56.5107" rx="47.4508" ry="45.2911" transform="rotate(-15.8189 66 56.5107)" fill="url(#paint0_linear)" fill-opacity="0.15"/>
<path d="M40.7031 53.18C39.6765 53.18 38.7031 53.0467 37.7831 52.78C36.8765 52.5 36.1365 52.1267 35.5631 51.66C35.2565 51.4333 35.1031 51.1133 35.1031 50.7C35.1031 50.42 35.1831 50.18 35.3431 49.98C35.5165 49.7667 35.7165 49.66 35.9431 49.66C36.1831 49.66 36.4565 49.7533 36.7631 49.94C37.3365 50.3533 37.9365 50.6533 38.5631 50.84C39.1898 51.0267 39.8831 51.12 40.6431 51.12C41.6165 51.12 42.3631 50.9533 42.8831 50.62C43.4031 50.2733 43.6631 49.7733 43.6631 49.12C43.6631 48.6133 43.4165 48.2267 42.9231 47.96C42.4431 47.68 41.6365 47.4133 40.5031 47.16C39.3298 46.9067 38.3765 46.6133 37.6431 46.28C36.9098 45.9467 36.3565 45.52 35.9831 45C35.6098 44.48 35.4231 43.82 35.4231 43.02C35.4231 42.1933 35.6565 41.4533 36.1231 40.8C36.5898 40.1467 37.2365 39.64 38.0631 39.28C38.9031 38.9067 39.8431 38.72 40.8831 38.72C42.7898 38.72 44.3431 39.2267 45.5431 40.24C45.7165 40.3867 45.8365 40.5333 45.9031 40.68C45.9831 40.8133 46.0231 40.9867 46.0231 41.2C46.0231 41.48 45.9365 41.7267 45.7631 41.94C45.6031 42.14 45.4098 42.24 45.1831 42.24C45.0498 42.24 44.9231 42.22 44.8031 42.18C44.6965 42.14 44.5498 42.0667 44.3631 41.96C43.8165 41.56 43.2831 41.2667 42.7631 41.08C42.2565 40.88 41.6298 40.78 40.8831 40.78C39.9765 40.78 39.2565 40.9667 38.7231 41.34C38.2031 41.7 37.9431 42.2067 37.9431 42.86C37.9431 43.4067 38.1765 43.8267 38.6431 44.12C39.1098 44.4133 39.9031 44.6867 41.0231 44.94C42.2098 45.2067 43.1698 45.5067 43.9031 45.84C44.6498 46.16 45.2165 46.5733 45.6031 47.08C46.0031 47.5867 46.2031 48.22 46.2031 48.98C46.2031 49.8067 45.9698 50.54 45.5031 51.18C45.0498 51.8067 44.4031 52.3 43.5631 52.66C42.7365 53.0067 41.7831 53.18 40.7031 53.18ZM53.217 53.16C52.217 53.16 51.337 52.9533 50.577 52.54C49.8304 52.1267 49.2504 51.5333 48.837 50.76C48.4237 49.9867 48.217 49.0867 48.217 48.06C48.217 47.0333 48.4237 46.14 48.837 45.38C49.2504 44.6067 49.8304 44.0133 50.577 43.6C51.337 43.1867 52.217 42.98 53.217 42.98C54.217 42.98 55.0904 43.1867 55.837 43.6C56.597 44.0133 57.177 44.6067 57.577 45.38C57.9904 46.14 58.197 47.0333 58.197 48.06C58.197 49.0867 57.9904 49.9867 57.577 50.76C57.177 51.5333 56.597 52.1267 55.837 52.54C55.0904 52.9533 54.217 53.16 53.217 53.16ZM53.197 51.22C54.0104 51.22 54.6304 50.9533 55.057 50.42C55.4837 49.8867 55.697 49.1 55.697 48.06C55.697 47.0333 55.4837 46.2533 55.057 45.72C54.6304 45.1733 54.017 44.9 53.217 44.9C52.417 44.9 51.797 45.1733 51.357 45.72C50.9304 46.2533 50.717 47.0333 50.717 48.06C50.717 49.1 50.9304 49.8867 51.357 50.42C51.7837 50.9533 52.397 51.22 53.197 51.22ZM64.2009 53.16C62.7476 53.16 61.5743 52.8733 60.6809 52.3C60.2543 52.0467 60.0409 51.6867 60.0409 51.22C60.0409 50.9533 60.1143 50.74 60.2609 50.58C60.4076 50.4067 60.5876 50.32 60.8009 50.32C61.0276 50.32 61.3409 50.4267 61.7409 50.64C62.1676 50.84 62.5543 50.9933 62.9009 51.1C63.2609 51.2067 63.7143 51.26 64.2609 51.26C64.8209 51.26 65.2543 51.1667 65.5609 50.98C65.8809 50.7933 66.0409 50.5333 66.0409 50.2C66.0409 49.9733 65.9743 49.7933 65.8409 49.66C65.7209 49.5267 65.4943 49.4067 65.1609 49.3C64.8409 49.18 64.3476 49.0467 63.6809 48.9C62.4943 48.66 61.6409 48.32 61.1209 47.88C60.6143 47.44 60.3609 46.8333 60.3609 46.06C60.3609 45.4733 60.5343 44.9467 60.8809 44.48C61.2276 44 61.7009 43.6333 62.3009 43.38C62.9143 43.1133 63.6076 42.98 64.3809 42.98C64.9409 42.98 65.4809 43.0533 66.0009 43.2C66.5209 43.3333 66.9876 43.5333 67.4009 43.8C67.8276 44.0667 68.0409 44.42 68.0409 44.86C68.0409 45.1267 67.9676 45.3533 67.8209 45.54C67.6743 45.7133 67.4943 45.8 67.2809 45.8C67.1343 45.8 66.9876 45.7733 66.8409 45.72C66.7076 45.6533 66.5343 45.56 66.3209 45.44C65.9343 45.24 65.6009 45.0933 65.3209 45C65.0409 44.8933 64.6943 44.84 64.2809 44.84C63.7876 44.84 63.3943 44.94 63.1009 45.14C62.8209 45.34 62.6809 45.6133 62.6809 45.96C62.6809 46.2933 62.8276 46.5467 63.1209 46.72C63.4143 46.8933 63.9809 47.0667 64.8209 47.24C65.7143 47.4267 66.4143 47.64 66.9209 47.88C67.4276 48.12 67.7876 48.42 68.0009 48.78C68.2276 49.14 68.3409 49.6 68.3409 50.16C68.3409 51.0667 67.9609 51.7933 67.2009 52.34C66.4543 52.8867 65.4543 53.16 64.2009 53.16ZM72.008 53.12C71.648 53.12 71.348 53.02 71.108 52.82C70.8813 52.6067 70.768 52.3067 70.768 51.92V44.2C70.768 43.8133 70.8813 43.52 71.108 43.32C71.348 43.12 71.648 43.02 72.008 43.02C72.368 43.02 72.668 43.12 72.908 43.32C73.148 43.52 73.268 43.8133 73.268 44.2V51.92C73.268 52.3067 73.148 52.6067 72.908 52.82C72.668 53.02 72.368 53.12 72.008 53.12ZM72.008 41.24C71.5546 41.24 71.1946 41.12 70.928 40.88C70.6613 40.6267 70.528 40.3 70.528 39.9C70.528 39.5 70.6613 39.18 70.928 38.94C71.1946 38.7 71.5546 38.58 72.008 38.58C72.448 38.58 72.8013 38.7 73.068 38.94C73.348 39.18 73.488 39.5 73.488 39.9C73.488 40.3 73.3546 40.6267 73.088 40.88C72.8213 41.12 72.4613 41.24 72.008 41.24ZM80.4861 42.98C81.8461 42.98 82.8528 43.32 83.5061 44C84.1728 44.6667 84.5061 45.6867 84.5061 47.06V51.94C84.5061 52.3 84.3994 52.5867 84.1861 52.8C83.9728 53 83.6794 53.1 83.3061 53.1C82.9594 53.1 82.6728 52.9933 82.4461 52.78C82.2328 52.5667 82.1261 52.2867 82.1261 51.94V51.5C81.8994 52.02 81.5394 52.4267 81.0461 52.72C80.5661 53.0133 80.0061 53.16 79.3661 53.16C78.7128 53.16 78.1194 53.0267 77.5861 52.76C77.0528 52.4933 76.6328 52.1267 76.3261 51.66C76.0194 51.1933 75.8661 50.6733 75.8661 50.1C75.8661 49.38 76.0461 48.8133 76.4061 48.4C76.7794 47.9867 77.3794 47.6867 78.2061 47.5C79.0328 47.3133 80.1728 47.22 81.6261 47.22H82.1261V46.76C82.1261 46.1067 81.9861 45.6333 81.7061 45.34C81.4261 45.0333 80.9728 44.88 80.3461 44.88C79.9594 44.88 79.5661 44.94 79.1661 45.06C78.7661 45.1667 78.2928 45.3267 77.7461 45.54C77.3994 45.7133 77.1461 45.8 76.9861 45.8C76.7461 45.8 76.5461 45.7133 76.3861 45.54C76.2394 45.3667 76.1661 45.14 76.1661 44.86C76.1661 44.6333 76.2194 44.44 76.3261 44.28C76.4461 44.1067 76.6394 43.9467 76.9061 43.8C77.3728 43.5467 77.9261 43.3467 78.5661 43.2C79.2194 43.0533 79.8594 42.98 80.4861 42.98ZM79.8661 51.36C80.5328 51.36 81.0728 51.14 81.4861 50.7C81.9128 50.2467 82.1261 49.6667 82.1261 48.96V48.54H81.7661C80.8728 48.54 80.1794 48.58 79.6861 48.66C79.1928 48.74 78.8394 48.88 78.6261 49.08C78.4128 49.28 78.3061 49.5533 78.3061 49.9C78.3061 50.3267 78.4528 50.68 78.7461 50.96C79.0528 51.2267 79.4261 51.36 79.8661 51.36ZM88.6869 53.12C88.3269 53.12 88.0269 53.02 87.7869 52.82C87.5602 52.6067 87.4469 52.3067 87.4469 51.92V39.98C87.4469 39.5933 87.5602 39.3 87.7869 39.1C88.0269 38.9 88.3269 38.8 88.6869 38.8C89.0469 38.8 89.3469 38.9 89.5869 39.1C89.8269 39.3 89.9469 39.5933 89.9469 39.98V51.92C89.9469 52.3067 89.8269 52.6067 89.5869 52.82C89.3469 53.02 89.0469 53.12 88.6869 53.12ZM93.905 48.64C93.5183 48.64 93.225 48.5533 93.025 48.38C92.8383 48.2067 92.745 47.9667 92.745 47.66C92.745 47.3533 92.8383 47.1133 93.025 46.94C93.225 46.7533 93.5183 46.66 93.905 46.66H98.025C98.4117 46.66 98.6983 46.7533 98.885 46.94C99.085 47.1133 99.185 47.3533 99.185 47.66C99.185 47.9667 99.085 48.2067 98.885 48.38C98.6983 48.5533 98.4117 48.64 98.025 48.64H93.905ZM48.3525 78.32C48.5792 78.32 48.7592 78.4067 48.8925 78.58C49.0392 78.7533 49.1125 78.9867 49.1125 79.28C49.1125 79.6933 48.8658 80.04 48.3725 80.32C47.9192 80.5733 47.4058 80.78 46.8325 80.94C46.2592 81.0867 45.7125 81.16 45.1925 81.16C43.6192 81.16 42.3725 80.7067 41.4525 79.8C40.5325 78.8933 40.0725 77.6533 40.0725 76.08C40.0725 75.08 40.2725 74.1933 40.6725 73.42C41.0725 72.6467 41.6325 72.0467 42.3525 71.62C43.0858 71.1933 43.9125 70.98 44.8325 70.98C45.7125 70.98 46.4792 71.1733 47.1325 71.56C47.7858 71.9467 48.2925 72.4933 48.6525 73.2C49.0125 73.9067 49.1925 74.74 49.1925 75.7C49.1925 76.2733 48.9392 76.56 48.4325 76.56H42.5325C42.6125 77.48 42.8725 78.16 43.3125 78.6C43.7525 79.0267 44.3925 79.24 45.2325 79.24C45.6592 79.24 46.0325 79.1867 46.3525 79.08C46.6858 78.9733 47.0592 78.8267 47.4725 78.64C47.8725 78.4267 48.1658 78.32 48.3525 78.32ZM44.8925 72.74C44.2125 72.74 43.6658 72.9533 43.2525 73.38C42.8525 73.8067 42.6125 74.42 42.5325 75.22H47.0525C47.0258 74.4067 46.8258 73.7933 46.4525 73.38C46.0792 72.9533 45.5592 72.74 44.8925 72.74ZM63.2575 70.98C64.3242 70.98 65.1375 71.3 65.6975 71.94C66.2708 72.5667 66.5575 73.5867 66.5575 75V79.92C66.5575 80.3067 66.4375 80.6067 66.1975 80.82C65.9708 81.02 65.6708 81.12 65.2975 81.12C64.9375 81.12 64.6375 81.02 64.3975 80.82C64.1708 80.6067 64.0575 80.3067 64.0575 79.92V75C64.0575 74.2667 63.9242 73.7467 63.6575 73.44C63.4042 73.12 63.0108 72.96 62.4775 72.96C61.8242 72.96 61.3042 73.1867 60.9175 73.64C60.5308 74.08 60.3375 74.6867 60.3375 75.46V79.92C60.3375 80.3067 60.2175 80.6067 59.9775 80.82C59.7508 81.02 59.4575 81.12 59.0975 81.12C58.7375 81.12 58.4375 81.02 58.1975 80.82C57.9575 80.6067 57.8375 80.3067 57.8375 79.92V75C57.8375 74.2667 57.7042 73.7467 57.4375 73.44C57.1842 73.12 56.7908 72.96 56.2575 72.96C55.6042 72.96 55.0842 73.1867 54.6975 73.64C54.3242 74.08 54.1375 74.6867 54.1375 75.46V79.92C54.1375 80.3067 54.0175 80.6067 53.7775 80.82C53.5375 81.02 53.2375 81.12 52.8775 81.12C52.5175 81.12 52.2175 81.02 51.9775 80.82C51.7508 80.6067 51.6375 80.3067 51.6375 79.92V72.18C51.6375 71.8067 51.7575 71.52 51.9975 71.32C52.2375 71.12 52.5375 71.02 52.8975 71.02C53.2442 71.02 53.5242 71.12 53.7375 71.32C53.9642 71.5067 54.0775 71.78 54.0775 72.14V72.62C54.3842 72.0867 54.7908 71.68 55.2975 71.4C55.8175 71.12 56.4108 70.98 57.0775 70.98C58.5442 70.98 59.5242 71.5933 60.0175 72.82C60.3108 72.26 60.7442 71.8133 61.3175 71.48C61.8908 71.1467 62.5375 70.98 63.2575 70.98ZM73.9584 81.16C72.9584 81.16 72.0784 80.9533 71.3184 80.54C70.5718 80.1267 69.9918 79.5333 69.5784 78.76C69.1651 77.9867 68.9584 77.0867 68.9584 76.06C68.9584 75.0333 69.1651 74.14 69.5784 73.38C69.9918 72.6067 70.5718 72.0133 71.3184 71.6C72.0784 71.1867 72.9584 70.98 73.9584 70.98C74.9584 70.98 75.8318 71.1867 76.5784 71.6C77.3384 72.0133 77.9184 72.6067 78.3184 73.38C78.7318 74.14 78.9384 75.0333 78.9384 76.06C78.9384 77.0867 78.7318 77.9867 78.3184 78.76C77.9184 79.5333 77.3384 80.1267 76.5784 80.54C75.8318 80.9533 74.9584 81.16 73.9584 81.16ZM73.9384 79.22C74.7518 79.22 75.3718 78.9533 75.7984 78.42C76.2251 77.8867 76.4384 77.1 76.4384 76.06C76.4384 75.0333 76.2251 74.2533 75.7984 73.72C75.3718 73.1733 74.7584 72.9 73.9584 72.9C73.1584 72.9 72.5384 73.1733 72.0984 73.72C71.6718 74.2533 71.4584 75.0333 71.4584 76.06C71.4584 77.1 71.6718 77.8867 72.0984 78.42C72.5251 78.9533 73.1384 79.22 73.9384 79.22ZM84.9423 81.16C83.489 81.16 82.3157 80.8733 81.4223 80.3C80.9957 80.0467 80.7823 79.6867 80.7823 79.22C80.7823 78.9533 80.8557 78.74 81.0023 78.58C81.149 78.4067 81.329 78.32 81.5423 78.32C81.769 78.32 82.0823 78.4267 82.4823 78.64C82.909 78.84 83.2957 78.9933 83.6423 79.1C84.0023 79.2067 84.4557 79.26 85.0023 79.26C85.5623 79.26 85.9957 79.1667 86.3023 78.98C86.6223 78.7933 86.7823 78.5333 86.7823 78.2C86.7823 77.9733 86.7157 77.7933 86.5823 77.66C86.4623 77.5267 86.2357 77.4067 85.9023 77.3C85.5823 77.18 85.089 77.0467 84.4223 76.9C83.2357 76.66 82.3823 76.32 81.8623 75.88C81.3557 75.44 81.1023 74.8333 81.1023 74.06C81.1023 73.4733 81.2757 72.9467 81.6223 72.48C81.969 72 82.4423 71.6333 83.0423 71.38C83.6557 71.1133 84.349 70.98 85.1223 70.98C85.6823 70.98 86.2223 71.0533 86.7423 71.2C87.2623 71.3333 87.729 71.5333 88.1423 71.8C88.569 72.0667 88.7823 72.42 88.7823 72.86C88.7823 73.1267 88.709 73.3533 88.5623 73.54C88.4157 73.7133 88.2357 73.8 88.0223 73.8C87.8757 73.8 87.729 73.7733 87.5823 73.72C87.449 73.6533 87.2757 73.56 87.0623 73.44C86.6757 73.24 86.3423 73.0933 86.0623 73C85.7823 72.8933 85.4357 72.84 85.0223 72.84C84.529 72.84 84.1357 72.94 83.8423 73.14C83.5623 73.34 83.4223 73.6133 83.4223 73.96C83.4223 74.2933 83.569 74.5467 83.8623 74.72C84.1557 74.8933 84.7223 75.0667 85.5623 75.24C86.4557 75.4267 87.1557 75.64 87.6623 75.88C88.169 76.12 88.529 76.42 88.7423 76.78C88.969 77.14 89.0823 77.6 89.0823 78.16C89.0823 79.0667 88.7023 79.7933 87.9423 80.34C87.1957 80.8867 86.1957 81.16 84.9423 81.16ZM92.7494 81.12C92.3894 81.12 92.0894 81.02 91.8494 80.82C91.6227 80.6067 91.5094 80.3067 91.5094 79.92V72.2C91.5094 71.8133 91.6227 71.52 91.8494 71.32C92.0894 71.12 92.3894 71.02 92.7494 71.02C93.1094 71.02 93.4094 71.12 93.6494 71.32C93.8894 71.52 94.0094 71.8133 94.0094 72.2V79.92C94.0094 80.3067 93.8894 80.6067 93.6494 80.82C93.4094 81.02 93.1094 81.12 92.7494 81.12ZM92.7494 69.24C92.296 69.24 91.936 69.12 91.6694 68.88C91.4027 68.6267 91.2694 68.3 91.2694 67.9C91.2694 67.5 91.4027 67.18 91.6694 66.94C91.936 66.7 92.296 66.58 92.7494 66.58C93.1894 66.58 93.5427 66.7 93.8094 66.94C94.0894 67.18 94.2294 67.5 94.2294 67.9C94.2294 68.3 94.096 68.6267 93.8294 68.88C93.5627 69.12 93.2027 69.24 92.7494 69.24Z" fill="#384F7D"/>
<defs>
<linearGradient id="paint0_linear" x1="148.697" y1="-17.1547" x2="-7.41137" y2="126.239" gradientUnits="userSpaceOnUse">
<stop stop-color="#4AF92D"/>
<stop offset="0.671875" stop-color="#84F1D7"/>
</linearGradient>
</defs>
</svg>