<svg width="38" height="35" viewBox="0 0 38 35" fill="none" xmlns="http://www.w3.org/2000/svg">
<ellipse cx="19.2283" cy="17.6277" rx="18.4252" ry="17.1008" fill="#0066B8"/>
<path d="M19.4308 17.3463C21.7196 17.3463 23.5753 15.2545 23.5753 12.6742C23.5753 10.0937 22.966 8.00195 19.4308 8.00195C15.8955 8.00195 15.2861 10.0937 15.2861 12.6742C15.2861 15.2545 17.1418 17.3463 19.4308 17.3463Z" fill="white"/>
<path d="M11.6025 24.4801C11.6018 24.3231 11.6012 24.4359 11.6025 24.4801V24.4801Z" fill="white"/>
<path d="M27.2585 24.603C27.2607 24.5601 27.2593 24.3049 27.2585 24.603V24.603Z" fill="white"/>
<path d="M27.2497 24.2918C27.173 19.7967 26.5405 18.5159 21.7001 17.7051C21.7001 17.7051 21.0188 18.5109 19.4307 18.5109C17.8426 18.5109 17.1611 17.7051 17.1611 17.7051C12.3736 18.507 11.7026 19.7689 11.6144 24.1458C11.6071 24.5032 11.6038 24.522 11.6025 24.4805C11.6028 24.5582 11.6031 24.702 11.6031 24.9527C11.6031 24.9527 12.7555 27.1088 19.4307 27.1088C26.1057 27.1088 27.2582 24.9527 27.2582 24.9527C27.2582 24.7916 27.2583 24.6796 27.2585 24.6034C27.2572 24.6291 27.2546 24.5793 27.2497 24.2918Z" fill="white"/>
</svg>
