<svg width="109" height="109" viewBox="0 0 109 109" fill="none" xmlns="http://www.w3.org/2000/svg">
<circle cx="54.5" cy="54.5" r="54.5" fill="#0066B8"/>
<path d="M46.1719 75.2656L29.2109 58.4062C28.737 57.9323 28.5 57.3229 28.5 56.5781C28.5 55.8333 28.737 55.224 29.2109 54.75L32.9688 51.0938C33.4427 50.5521 34.0182 50.2812 34.6953 50.2812C35.4401 50.2812 36.0833 50.5521 36.625 51.0938L48 62.4688L72.375 38.0938C72.9167 37.5521 73.526 37.2812 74.2031 37.2812C74.9479 37.2812 75.5573 37.5521 76.0312 38.0938L79.7891 41.75C80.263 42.224 80.5 42.8333 80.5 43.5781C80.5 44.3229 80.263 44.9323 79.7891 45.4062L49.8281 75.2656C49.3542 75.8073 48.7448 76.0781 48 76.0781C47.2552 76.0781 46.6458 75.8073 46.1719 75.2656Z" fill="white"/>
</svg>
